<svg xmlns="http://www.w3.org/2000/svg" viewBox="0 0 1440 360" role="img" aria-label="Flow diagram for insights-n8n-aiops-platform">
<defs>
  <linearGradient id="bg" x1="0" y1="0" x2="1" y2="1">
    <stop offset="0%" stop-color="#f8fbff"/>
    <stop offset="100%" stop-color="#eaf2ff"/>
  </linearGradient>
</defs>
<rect width="1440" height="360" rx="20" fill="url(#bg)"/>
<rect x="44" y="113" width="236" height="124" rx="16" fill="#dbeafe" opacity="0.6"/>
<rect x="42" y="110" width="236" height="124" rx="16" fill="#ffffff" stroke="#7aa7ef" stroke-width="2"/>
<text x="160.0" y="156" text-anchor="middle" fill="#1f2937" font-size="16" font-family="ui-sans-serif, system-ui, -apple-system, Segoe UI, Roboto, Arial" font-weight="600">Telemetry and Alert Inputs</text>
<rect x="324" y="113" width="236" height="124" rx="16" fill="#dbeafe" opacity="0.6"/>
<rect x="322" y="110" width="236" height="124" rx="16" fill="#ffffff" stroke="#7aa7ef" stroke-width="2"/>
<text x="440.0" y="156" text-anchor="middle" fill="#1f2937" font-size="16" font-family="ui-sans-serif, system-ui, -apple-system, Segoe UI, Roboto, Arial" font-weight="600">n8n Event Correlation</text>
<rect x="604" y="113" width="236" height="124" rx="16" fill="#dbeafe" opacity="0.6"/>
<rect x="602" y="110" width="236" height="124" rx="16" fill="#ffffff" stroke="#7aa7ef" stroke-width="2"/>
<text x="720.0" y="156" text-anchor="middle" fill="#1f2937" font-size="16" font-family="ui-sans-serif, system-ui, -apple-system, Segoe UI, Roboto, Arial" font-weight="600">AI-Assisted Triage</text>
<rect x="884" y="113" width="236" height="124" rx="16" fill="#dbeafe" opacity="0.6"/>
<rect x="882" y="110" width="236" height="124" rx="16" fill="#ffffff" stroke="#7aa7ef" stroke-width="2"/>
<text x="1000.0" y="146" text-anchor="middle" fill="#1f2937" font-size="16" font-family="ui-sans-serif, system-ui, -apple-system, Segoe UI, Roboto, Arial" font-weight="600">Automated Action with</text>
<text x="1000.0" y="168" text-anchor="middle" fill="#1f2937" font-size="16" font-family="ui-sans-serif, system-ui, -apple-system, Segoe UI, Roboto, Arial" font-weight="600">Controls</text>
<rect x="1164" y="113" width="236" height="124" rx="16" fill="#dbeafe" opacity="0.6"/>
<rect x="1162" y="110" width="236" height="124" rx="16" fill="#ffffff" stroke="#7aa7ef" stroke-width="2"/>
<text x="1280.0" y="146" text-anchor="middle" fill="#1f2937" font-size="16" font-family="ui-sans-serif, system-ui, -apple-system, Segoe UI, Roboto, Arial" font-weight="600">Ops Feedback and Tuning</text>
<text x="1280.0" y="168" text-anchor="middle" fill="#1f2937" font-size="16" font-family="ui-sans-serif, system-ui, -apple-system, Segoe UI, Roboto, Arial" font-weight="600">Loop</text>
<line x1="278.0" y1="172.0" x2="310.0" y2="172.0" stroke="#2563eb" stroke-width="4" stroke-linecap="round"/>
<polygon points="310.0,166.0 322.0,172.0 310.0,178.0" fill="#2563eb"/>
<line x1="558.0" y1="172.0" x2="590.0" y2="172.0" stroke="#2563eb" stroke-width="4" stroke-linecap="round"/>
<polygon points="590.0,166.0 602.0,172.0 590.0,178.0" fill="#2563eb"/>
<line x1="838.0" y1="172.0" x2="870.0" y2="172.0" stroke="#2563eb" stroke-width="4" stroke-linecap="round"/>
<polygon points="870.0,166.0 882.0,172.0 870.0,178.0" fill="#2563eb"/>
<line x1="1118.0" y1="172.0" x2="1150.0" y2="172.0" stroke="#2563eb" stroke-width="4" stroke-linecap="round"/>
<polygon points="1150.0,166.0 1162.0,172.0 1150.0,178.0" fill="#2563eb"/>
</svg>