<svg xmlns="http://www.w3.org/2000/svg" viewBox="0 0 1440 360" role="img" aria-label="Flow diagram for insights-beyond-apply-button-infrastructure-code">
<defs>
  <linearGradient id="bg" x1="0" y1="0" x2="1" y2="1">
    <stop offset="0%" stop-color="#f8fbff"/>
    <stop offset="100%" stop-color="#eaf2ff"/>
  </linearGradient>
</defs>
  <rect width="1440" height="360" rx="20" fill="url(#bg)"/>
  <rect x="44" y="113" width="236" height="124" rx="16" fill="#dbeafe" opacity="0.6"/>
  <rect x="42" y="110" width="236" height="124" rx="16" fill="#ffffff" stroke="#7aa7ef" stroke-width="2"/>
  <text x="160.0" y="146" text-anchor="middle" fill="#1f2937" font-size="16" font-family="ui-sans-serif, system-ui, -apple-system, Segoe UI, Roboto, Arial" font-weight="600">Provider and</text>
  <text x="160.0" y="168" text-anchor="middle" fill="#1f2937" font-size="16" font-family="ui-sans-serif, system-ui, -apple-system, Segoe UI, Roboto, Arial" font-weight="600">Environment Reality</text>
  <rect x="324" y="113" width="236" height="124" rx="16" fill="#dbeafe" opacity="0.6"/>
  <rect x="322" y="110" width="236" height="124" rx="16" fill="#ffffff" stroke="#7aa7ef" stroke-width="2"/>
  <text x="440.0" y="146" text-anchor="middle" fill="#1f2937" font-size="16" font-family="ui-sans-serif, system-ui, -apple-system, Segoe UI, Roboto, Arial" font-weight="600">Service-Oriented</text>
  <text x="440.0" y="168" text-anchor="middle" fill="#1f2937" font-size="16" font-family="ui-sans-serif, system-ui, -apple-system, Segoe UI, Roboto, Arial" font-weight="600">Module Boundaries</text>
  <rect x="604" y="113" width="236" height="124" rx="16" fill="#dbeafe" opacity="0.6"/>
  <rect x="602" y="110" width="236" height="124" rx="16" fill="#ffffff" stroke="#7aa7ef" stroke-width="2"/>
  <text x="720.0" y="146" text-anchor="middle" fill="#1f2937" font-size="16" font-family="ui-sans-serif, system-ui, -apple-system, Segoe UI, Roboto, Arial" font-weight="600">Remote State and</text>
  <text x="720.0" y="168" text-anchor="middle" fill="#1f2937" font-size="16" font-family="ui-sans-serif, system-ui, -apple-system, Segoe UI, Roboto, Arial" font-weight="600">Locking Discipline</text>
  <rect x="884" y="113" width="236" height="124" rx="16" fill="#dbeafe" opacity="0.6"/>
  <rect x="882" y="110" width="236" height="124" rx="16" fill="#ffffff" stroke="#7aa7ef" stroke-width="2"/>
  <text x="1000.0" y="146" text-anchor="middle" fill="#1f2937" font-size="16" font-family="ui-sans-serif, system-ui, -apple-system, Segoe UI, Roboto, Arial" font-weight="600">Automated</text>
  <text x="1000.0" y="168" text-anchor="middle" fill="#1f2937" font-size="16" font-family="ui-sans-serif, system-ui, -apple-system, Segoe UI, Roboto, Arial" font-weight="600">Test Pyramid</text>
  <rect x="1164" y="113" width="236" height="124" rx="16" fill="#dbeafe" opacity="0.6"/>
  <rect x="1162" y="110" width="236" height="124" rx="16" fill="#ffffff" stroke="#7aa7ef" stroke-width="2"/>
  <text x="1280.0" y="146" text-anchor="middle" fill="#1f2937" font-size="16" font-family="ui-sans-serif, system-ui, -apple-system, Segoe UI, Roboto, Arial" font-weight="600">Versioned Promotion</text>
  <text x="1280.0" y="168" text-anchor="middle" fill="#1f2937" font-size="16" font-family="ui-sans-serif, system-ui, -apple-system, Segoe UI, Roboto, Arial" font-weight="600">and Release Evidence</text>
  <line x1="278" y1="172.0" x2="310" y2="172.0" stroke="#2563eb" stroke-width="4" stroke-linecap="round"/>
  <polygon points="310,166.0 322,172.0 310,178.0" fill="#2563eb"/>
  <line x1="558" y1="172.0" x2="590" y2="172.0" stroke="#2563eb" stroke-width="4" stroke-linecap="round"/>
  <polygon points="590,166.0 602,172.0 590,178.0" fill="#2563eb"/>
  <line x1="838" y1="172.0" x2="870" y2="172.0" stroke="#2563eb" stroke-width="4" stroke-linecap="round"/>
  <polygon points="870,166.0 882,172.0 870,178.0" fill="#2563eb"/>
  <line x1="1118" y1="172.0" x2="1150" y2="172.0" stroke="#2563eb" stroke-width="4" stroke-linecap="round"/>
  <polygon points="1150,166.0 1162,172.0 1150,178.0" fill="#2563eb"/>
</svg>
